<svg width="48" height="29" viewBox="0 0 48 29" fill="none" xmlns="http://www.w3.org/2000/svg">
<path d="M15.7349 24.2631L5.96713 14.5L15.7349 4.73693C16.7117 3.76062 16.7117 2.20854 15.7349 1.23223C14.7582 0.255923 13.2053 0.255923 12.2285 1.23223L0.732585 12.7226C-0.244195 13.6989 -0.244195 15.276 0.732585 16.2523L12.2285 27.7678C13.2053 28.7441 14.7582 28.7441 15.7349 27.7678C16.7117 26.7915 16.7117 25.2394 15.7349 24.2631ZM32.2651 24.2631L42.0329 14.5L32.2651 4.73693C31.2883 3.76062 31.2883 2.20854 32.2651 1.23223C33.2418 0.255923 34.7947 0.255923 35.7715 1.23223L47.2674 12.7226C48.2442 13.6989 48.2442 15.276 47.2674 16.2523L35.7715 27.7678C34.7947 28.7441 33.2418 28.7441 32.2651 27.7678C31.2883 26.7915 31.2883 25.2394 32.2651 24.2631Z" fill="#007777"/>
</svg>
