<svg width="623" height="466" viewBox="0 0 623 466" fill="none" xmlns="http://www.w3.org/2000/svg">
<g clip-path="url(#clip0_193_40)">
<path d="M25.3963 177.535L52.2704 39.5383L185.54 78.1143L134.404 209.068L75.4863 208.221L25.3963 177.535Z" fill="#E44D26"/>
<path d="M126.492 197.495L170.194 85.5919L115.716 69.823L78.8851 196.819L126.492 197.495Z" fill="#F16529"/>
<path d="M110.876 86.2993L69.0948 74.2053L59.1302 125.388L96.4671 136.195L101.25 119.703L79.174 113.312L82.5466 95.9813L106.149 102.813L110.933 86.3157L110.876 86.2993ZM88.8428 162.484L88.7665 162.483L71.6236 152.145L74.2577 138.649L57.4997 133.799L52.3272 160.372L83.7958 179.604L83.8782 179.603L88.8428 162.484Z" fill="#EBEBEB"/>
<path d="M96.4104 136.179L116.956 142.126L108.865 162.965L88.8157 162.542L83.8389 179.703L120.762 180.232L140.03 130.917L101.253 119.693L96.4104 136.179ZM150.987 102.708L152.667 98.3958L110.867 86.2964L106.084 102.789L146.382 114.454L147.788 110.842L150.987 102.708Z" fill="white"/>
</g>
<g clip-path="url(#clip1_193_40)">
<path d="M257.063 306.078L281.68 420.348L240.6 446.677L191.949 448.253L147.346 340.175L257.063 306.078Z" fill="#264DE4"/>
<path d="M237.724 437.204L270.919 415.929L249.883 318.28L205.035 332.217L237.724 437.204Z" fill="#2965F1"/>
<path d="M217.874 373.453L185.906 383.387L191.383 396.64L222.12 387.088L217.874 373.453Z" fill="#EBEBEB"/>
<path d="M209.281 345.853L209.233 345.868L174.839 356.557L180.333 369.805L213.527 359.489L209.281 345.853Z" fill="#EBEBEB"/>
<path d="M194.119 403.268L202.71 424.08L233.261 423.091L233.319 423.054L228.901 408.867L228.846 408.901L212.272 409.555L207.908 398.983L200.474 401.293L194.119 403.268Z" fill="#EBEBEB"/>
<path d="M238.986 381.847L242.899 400.027L228.857 408.893L233.274 423.079L259.021 406.581L258.51 404.213L250.56 367.311L249.755 363.545L243.641 335.175L209.233 345.868L213.479 359.504L232.834 353.489L235.932 367.841L217.827 373.467L222.073 387.103L238.986 381.847Z" fill="white"/>
</g>
<g clip-path="url(#clip2_193_40)">
<path d="M379.734 124.885L408.32 21.9204L511.384 50.4783L482.798 153.443L379.734 124.885Z" fill="#FFD600"/>
<path d="M454.31 117.664C455.398 121.428 456.696 125.105 461.257 126.369C465.087 127.43 467.625 126.085 468.355 123.454C469.23 120.305 467.462 118.61 463.756 115.609L461.719 113.985C455.836 109.312 452.384 104.542 454.461 97.063C456.375 90.1701 463.113 86.3883 471.367 88.6753C477.244 90.3039 480.902 93.5075 482.47 99.6771L473.997 102.279C473.198 99.0145 471.795 97.4276 469.141 96.6922C466.433 95.9418 464.244 97.1741 463.624 99.405C462.859 102.162 464.267 103.754 467.758 106.56L469.795 108.184C476.726 113.705 480.209 118.348 478.078 126.024C475.782 134.296 467.984 137.017 459.207 134.585C450.621 132.206 446.94 126.551 445.706 120.47L454.31 117.664Z" fill="#000001"/>
<path d="M421.075 108.708C421.804 111.701 423.452 114.304 426.619 115.181C429.648 116.021 431.723 115.308 433.013 110.661L441.422 80.3747L450.964 83.0187L442.149 114.769C439.475 124.399 432.668 127.231 424.503 124.969C417.125 122.925 413.186 116.455 412.304 111.215L421.075 108.708Z" fill="#000001"/>
</g>
<g clip-path="url(#clip3_193_40)">
<path d="M495.991 265.643C497.927 263.736 500.747 262.953 503.387 263.59C516.449 266.732 555.757 276.191 568.823 279.332C571.465 279.964 573.528 281.921 574.235 284.464C577.73 297.029 588.247 334.847 591.742 347.411C592.449 349.954 591.693 352.694 589.756 354.601C580.189 364.024 551.399 392.386 541.828 401.81C539.892 403.717 537.072 404.499 534.432 403.863C521.37 400.721 482.062 391.262 468.996 388.121C466.356 387.485 464.294 385.53 463.587 382.988C460.093 370.423 449.575 332.605 446.08 320.04C445.373 317.498 446.13 314.758 448.066 312.851C457.63 303.429 486.427 275.065 495.991 265.643Z" fill="#28006B"/>
<path d="M465.513 385.941C464.285 385.002 463.844 383.91 463.421 382.392C459.947 369.9 449.49 332.299 446.015 319.804C445.311 317.275 446.068 314.549 448.001 312.655C457.538 303.279 486.244 275.059 495.78 265.681C497.711 263.782 500.811 262.951 503.446 263.581C516.458 266.698 555.461 275.95 568.473 279.067C569.524 279.321 570.389 279.739 571.233 280.371L465.513 385.941Z" fill="#A279DD"/>
<path d="M505.921 287.017C479.851 294.254 464.523 321.042 471.696 346.833C478.869 372.623 505.832 387.673 531.902 380.436C557.972 373.2 573.299 346.411 566.127 320.621C558.954 294.831 531.99 279.781 505.921 287.017ZM525.407 357.081C512.389 360.695 498.885 353.158 495.304 340.28C491.722 327.401 499.398 313.986 512.416 310.372C525.434 306.759 538.937 314.295 542.519 327.174C546.101 340.052 538.425 353.468 525.407 357.081Z" fill="white"/>
<path d="M571.236 280.406C573.424 281.534 574.066 283.972 574.598 285.884C578.119 298.546 588.027 334.589 591.686 347.212C592.067 348.529 592.013 350.043 591.643 351.274L517.539 334.108L571.236 280.406Z" fill="#36048B"/>
<path d="M548.925 311.02L552.297 310.084L559.721 336.775L556.348 337.711L548.925 311.02ZM559.042 308.211L562.415 307.275L569.838 333.966L566.466 334.902L559.042 308.211Z" fill="white"/>
<path d="M546.819 329.574L573.8 322.085L574.728 325.421L547.747 332.91L546.819 329.574ZM544.036 319.565L571.016 312.076L571.944 315.412L544.964 322.901L544.036 319.565Z" fill="white"/>
</g>
<g filter="url(#filter0_d_193_40)">
<mask id="mask0_193_40" style="mask-type:luminance" maskUnits="userSpaceOnUse" x="226" y="159" width="223" height="114">
<path d="M226.379 216.082C226.379 247.457 276.144 272.892 337.531 272.892C398.917 272.892 448.682 247.457 448.682 216.082C448.682 184.707 398.917 159.272 337.531 159.272C276.144 159.272 226.379 184.708 226.379 216.082Z" fill="white"/>
</mask>
<g mask="url(#mask0_193_40)">
<path d="M226.379 216.082C226.379 247.457 276.144 272.892 337.531 272.892C398.917 272.892 448.682 247.457 448.682 216.082C448.682 184.707 398.917 159.272 337.531 159.272C276.144 159.272 226.379 184.708 226.379 216.082Z" fill="url(#paint0_radial_193_40)"/>
</g>
<mask id="mask1_193_40" style="mask-type:luminance" maskUnits="userSpaceOnUse" x="221" y="152" width="233" height="128">
<path d="M221.747 152.804H453.314V279.36H221.747V152.804Z" fill="white"/>
</mask>
<g mask="url(#mask1_193_40)">
<path d="M337.531 268.673C396.52 268.673 444.34 245.127 444.34 216.082C444.34 187.037 396.52 163.491 337.531 163.491C278.541 163.491 230.721 187.037 230.721 216.082C230.721 245.127 278.541 268.673 337.531 268.673Z" fill="#777BB3"/>
</g>
<mask id="mask2_193_40" style="mask-type:luminance" maskUnits="userSpaceOnUse" x="221" y="152" width="233" height="128">
<path d="M221.747 152.804H453.314V279.36H221.747V152.804Z" fill="white"/>
</mask>
<g mask="url(#mask2_193_40)">
<path d="M286.768 222.603C291.619 222.603 295.24 221.734 297.531 220.021C299.797 218.326 301.363 215.387 302.183 211.29C302.948 207.459 302.657 204.785 301.317 203.342C299.948 201.867 296.986 201.12 292.516 201.12H284.765L280.467 222.603H286.768L286.768 222.603ZM261.415 249.066C261.055 249.066 260.714 248.91 260.485 248.64C260.372 248.506 260.29 248.35 260.247 248.183C260.203 248.015 260.198 247.84 260.232 247.671L271.62 190.74C271.674 190.473 271.821 190.233 272.037 190.06C272.253 189.887 272.524 189.792 272.804 189.792H297.349C305.063 189.792 310.805 191.823 314.414 195.842C318.042 199.876 319.163 205.518 317.744 212.606C317.167 215.494 316.174 218.176 314.793 220.579C313.41 222.983 311.583 225.207 309.362 227.191C306.702 229.61 303.692 231.364 300.422 232.396C297.205 233.414 293.073 233.931 288.141 233.931H278.203L275.364 248.119C275.311 248.385 275.164 248.626 274.948 248.799C274.732 248.972 274.461 249.067 274.181 249.067H261.415V249.066Z" fill="black"/>
<path d="M285.759 202.291H292.517C297.912 202.291 299.786 203.441 300.423 204.127C301.48 205.265 301.679 207.665 301 211.067C300.237 214.875 298.823 217.576 296.796 219.092C294.721 220.644 291.347 221.431 286.769 221.431H281.931L285.759 202.291ZM297.35 188.62H272.805C272.245 188.62 271.702 188.809 271.27 189.155C270.838 189.501 270.544 189.982 270.437 190.516L259.048 247.448C258.981 247.787 258.991 248.137 259.078 248.472C259.166 248.807 259.329 249.119 259.555 249.385C259.781 249.652 260.066 249.867 260.387 250.014C260.709 250.162 261.06 250.238 261.416 250.238H274.18C274.74 250.238 275.283 250.049 275.715 249.703C276.147 249.357 276.441 248.876 276.548 248.342L279.197 235.102H288.142C293.2 235.102 297.458 234.566 300.798 233.51C304.231 232.426 307.391 230.588 310.186 228.048C312.499 225.981 314.408 223.66 315.847 221.151C317.286 218.641 318.327 215.841 318.93 212.83C320.423 205.368 319.21 199.392 315.323 195.071C311.475 190.791 305.428 188.62 297.351 188.62M279.005 223.775H286.769C291.915 223.775 295.749 222.833 298.267 220.949C300.785 219.065 302.485 215.92 303.368 211.513C304.212 207.282 303.828 204.297 302.214 202.557C300.601 200.817 297.366 199.948 292.517 199.948H283.772L279.005 223.774M297.351 190.964C304.735 190.964 310.122 192.846 313.508 196.612C316.893 200.377 317.913 205.634 316.562 212.382C316.006 215.162 315.065 217.704 313.742 220.007C312.418 222.31 310.685 224.418 308.547 226.329C305.998 228.646 303.166 230.297 300.051 231.281C296.935 232.268 292.967 232.759 288.143 232.759H277.209L274.182 247.895H261.418L272.805 190.964H297.35" fill="white"/>
<path d="M347.011 233.93C346.651 233.93 346.31 233.774 346.081 233.503C345.852 233.233 345.759 232.879 345.828 232.535L350.865 207.345C351.345 204.949 351.226 203.23 350.533 202.503C350.108 202.059 348.833 201.314 345.062 201.314H335.936L329.602 232.981C329.548 233.248 329.401 233.489 329.185 233.662C328.969 233.835 328.698 233.93 328.418 233.93H315.754C315.576 233.93 315.401 233.891 315.24 233.818C315.079 233.744 314.937 233.637 314.823 233.503C314.71 233.37 314.629 233.214 314.585 233.046C314.541 232.879 314.536 232.704 314.57 232.534L325.959 175.604C326.012 175.337 326.159 175.096 326.375 174.923C326.591 174.75 326.863 174.656 327.143 174.656H339.806C339.984 174.656 340.16 174.694 340.321 174.768C340.482 174.841 340.624 174.949 340.737 175.082C340.85 175.215 340.932 175.371 340.975 175.539C341.019 175.706 341.024 175.881 340.99 176.051L338.242 189.792H348.06C355.54 189.792 360.612 191.073 363.566 193.709C366.582 196.398 367.517 200.697 366.359 206.489L361.061 232.982C361.007 233.249 360.86 233.49 360.644 233.663C360.428 233.836 360.157 233.93 359.877 233.93H347.012L347.011 233.93Z" fill="black"/>
<path d="M339.806 173.484H327.142C326.582 173.484 326.04 173.673 325.608 174.019C325.176 174.365 324.881 174.846 324.774 175.38L313.386 232.311C313.318 232.65 313.328 233 313.416 233.335C313.503 233.67 313.666 233.982 313.892 234.249C314.119 234.516 314.403 234.73 314.725 234.878C315.047 235.025 315.398 235.102 315.754 235.102H328.417C328.977 235.102 329.52 234.912 329.952 234.566C330.384 234.22 330.679 233.739 330.785 233.205L336.93 202.486H345.062C348.827 202.486 349.617 203.267 349.648 203.301C349.877 203.539 350.177 204.645 349.681 207.121L344.644 232.311C344.576 232.65 344.586 233 344.674 233.335C344.762 233.67 344.924 233.982 345.151 234.249C345.377 234.516 345.661 234.73 345.983 234.878C346.305 235.025 346.656 235.102 347.012 235.102H359.877C360.437 235.102 360.979 234.912 361.411 234.566C361.843 234.22 362.138 233.739 362.245 233.205L367.543 206.712C368.787 200.494 367.723 195.829 364.383 192.846C361.196 190.002 355.857 188.62 348.061 188.62H339.705L342.175 176.275C342.243 175.935 342.233 175.585 342.145 175.25C342.058 174.915 341.895 174.603 341.669 174.337C341.442 174.07 341.158 173.855 340.836 173.708C340.514 173.56 340.163 173.484 339.807 173.484M339.807 175.827L336.78 190.963H348.062C355.16 190.963 360.056 192.167 362.752 194.572C365.447 196.976 366.253 200.876 365.177 206.266L359.878 232.758H347.013L352.05 207.569C352.624 204.703 352.413 202.749 351.418 201.706C350.422 200.664 348.304 200.142 345.064 200.142H334.942L328.418 232.758H315.754L327.143 175.827H339.807" fill="white"/>
<path d="M386.397 222.603C391.247 222.603 394.868 221.734 397.159 220.021C399.425 218.326 400.991 215.388 401.812 211.29C402.577 207.459 402.285 204.785 400.945 203.342C399.576 201.867 396.614 201.12 392.144 201.12H384.393L380.095 222.603H386.396L386.397 222.603ZM361.044 249.066C360.684 249.066 360.343 248.91 360.114 248.64C360.001 248.506 359.919 248.35 359.875 248.183C359.832 248.015 359.826 247.841 359.86 247.671L371.249 190.74C371.302 190.473 371.45 190.233 371.666 190.06C371.882 189.887 372.153 189.792 372.433 189.792H396.978C404.693 189.792 410.434 191.823 414.043 195.842C417.671 199.876 418.791 205.517 417.373 212.606C416.795 215.494 415.802 218.176 414.421 220.579C413.038 222.983 411.212 225.207 408.99 227.191C406.33 229.61 403.32 231.364 400.051 232.396C396.833 233.414 392.702 233.931 387.77 233.931H377.829L374.992 248.119C374.939 248.386 374.792 248.626 374.575 248.799C374.359 248.972 374.088 249.067 373.808 249.067H361.044L361.044 249.066Z" fill="black"/>
<path d="M385.388 202.291H392.145C397.54 202.291 399.415 203.441 400.051 204.127C401.109 205.265 401.308 207.665 400.628 211.066C399.865 214.875 398.451 217.576 396.424 219.092C394.349 220.644 390.975 221.431 386.397 221.431H381.56L385.388 202.291ZM396.978 188.62H372.433C371.873 188.62 371.331 188.809 370.899 189.155C370.467 189.501 370.172 189.982 370.065 190.516L358.677 247.448C358.609 247.787 358.619 248.137 358.707 248.472C358.795 248.807 358.957 249.119 359.184 249.385C359.41 249.652 359.694 249.867 360.016 250.014C360.337 250.162 360.689 250.238 361.045 250.238H373.809C374.369 250.238 374.911 250.049 375.343 249.703C375.775 249.357 376.07 248.876 376.177 248.342L378.825 235.102H387.77C392.828 235.102 397.086 234.566 400.426 233.51C403.859 232.426 407.019 230.588 409.815 228.047C412.128 225.981 414.032 223.66 415.475 221.151C416.918 218.641 417.956 215.841 418.558 212.83C420.051 205.368 418.838 199.392 414.952 195.07C411.103 190.791 405.057 188.62 396.979 188.62M378.634 223.775H386.397C391.543 223.775 395.377 222.833 397.895 220.949C400.414 219.065 402.113 215.92 402.996 211.513C403.841 207.282 403.457 204.297 401.842 202.557C400.228 200.817 396.994 199.948 392.146 199.948H383.4L378.634 223.774M396.979 190.964C404.363 190.964 409.75 192.846 413.136 196.612C416.522 200.377 417.541 205.634 416.19 212.382C415.634 215.162 414.694 217.704 413.37 220.007C412.046 222.31 410.313 224.418 408.175 226.329C405.626 228.646 402.794 230.297 399.679 231.281C396.563 232.268 392.595 232.759 387.771 232.759H376.837L373.81 247.895H361.046L372.434 190.964H396.979" fill="white"/>
</g>
</g>
<defs>
<filter id="filter0_d_193_40" x="189.13" y="139.265" width="300.589" height="152.106" filterUnits="userSpaceOnUse" color-interpolation-filters="sRGB">
<feFlood flood-opacity="0" result="BackgroundImageFix"/>
<feColorMatrix in="SourceAlpha" type="matrix" values="0 0 0 0 0 0 0 0 0 0 0 0 0 0 0 0 0 0 127 0" result="hardAlpha"/>
<feOffset dy="4"/>
<feGaussianBlur stdDeviation="2"/>
<feComposite in2="hardAlpha" operator="out"/>
<feColorMatrix type="matrix" values="0 0 0 0 0 0 0 0 0 0 0 0 0 0 0 0 0 0 0.25 0"/>
<feBlend mode="normal" in2="BackgroundImageFix" result="effect1_dropShadow_193_40"/>
<feBlend mode="normal" in="SourceGraphic" in2="effect1_dropShadow_193_40" result="shape"/>
</filter>
<radialGradient id="paint0_radial_193_40" cx="0" cy="0" r="1" gradientUnits="userSpaceOnUse" gradientTransform="translate(293.115 179.245) scale(145.958 141.812)">
<stop stop-color="#AEB2D5"/>
<stop offset="0.3" stop-color="#AEB2D5"/>
<stop offset="0.75" stop-color="#484C89"/>
<stop offset="1" stop-color="#484C89"/>
</radialGradient>
<clipPath id="clip0_193_40">
<rect width="157.347" height="155.581" fill="white" transform="matrix(0.960569 0.278043 -0.27854 0.960425 43.3354 36.947)"/>
</clipPath>
<clipPath id="clip1_193_40">
<rect width="130.302" height="129.379" fill="white" transform="matrix(0.954951 -0.296765 0.297289 0.954788 139.958 342.47)"/>
</clipPath>
<clipPath id="clip2_193_40">
<rect width="142.597" height="142.479" fill="white" transform="matrix(0.963689 0.267027 -0.267507 0.963556 395.907 0)"/>
</clipPath>
<clipPath id="clip3_193_40">
<rect width="168.002" height="166.225" fill="white" transform="matrix(0.963567 -0.267466 0.267947 0.963434 415.701 276.121)"/>
</clipPath>
</defs>
</svg>
