<svg width="502" height="470" viewBox="0 0 502 470" fill="none" xmlns="http://www.w3.org/2000/svg">
<g clip-path="url(#clip0_193_176)">
<g clip-path="url(#clip1_193_176)">
<path d="M151.012 82.9937L41.1161 66.0718L136.189 134.558L145.494 121.696L151.012 82.9937Z" fill="url(#paint0_linear_193_176)"/>
<path d="M107.116 75.605L85.1483 51.8979L69.3895 86.3487L113.595 173.276L142.832 177.005L172.513 140.314L107.116 75.605Z" fill="url(#paint1_linear_193_176)"/>
<path d="M41.1161 66.0717L12.3513 106.892L60.4592 191.291L103.013 191.729L136.374 134.489L41.1161 66.0717Z" fill="url(#paint2_linear_193_176)"/>
<path d="M115.814 67.8698L38.1644 96.9963L67.5795 175.415L145.229 146.289L115.814 67.8698Z" fill="black"/>
<path d="M100.112 147.451L70.9014 158.408L72.7923 163.45L102.003 152.493L100.112 147.451Z" fill="white"/>
<path d="M81.5554 91.7954L93.018 87.4958C102.262 84.0283 110.929 88.0187 113.941 96.0472C117.022 104.263 113.188 113.155 103.944 116.623L92.6211 121.296L81.5554 91.7954ZM90.2674 95.343L96.9208 113.081L101.913 111.208C107.089 109.266 109.456 104.332 107.565 99.2907C105.604 94.0627 100.761 91.8328 95.3992 93.844L90.2674 95.343Z" fill="white"/>
<path d="M51.6049 103.03L64.9163 98.0369C68.6139 96.6499 71.8073 96.7299 74.5413 97.8342C76.8356 98.8905 78.4155 100.854 79.466 103.654L79.5361 103.841C80.4466 106.268 80.5923 108.343 80.0433 110.253C79.4943 112.163 78.4355 113.838 76.8668 115.278L87.9991 123.03L80.4191 125.873L70.9563 119.199L65.5948 121.21L68.9565 130.173L62.4857 132.6L51.6049 103.03ZM69.9393 112.552C71.4183 111.998 72.5724 111.139 73.2167 110.045C73.8609 108.952 73.8105 107.693 73.3902 106.572L73.3202 106.386C72.7599 104.892 72.04 104.097 70.8354 103.697C69.7009 103.484 68.3815 103.34 66.7176 103.964L60.4317 106.322L63.5833 114.724L69.8692 112.366L69.9393 112.552Z" fill="white"/>
</g>
</g>
<g clip-path="url(#clip2_193_176)" filter="url(#filter0_d_193_176)">
<path d="M81.6307 325.629L111.073 305.035L155.438 326.918L156.929 347.924L143.934 380.531L127.688 366.215L121.975 393.455L116.149 416.955L75.0254 407.213L81.6307 325.629Z" fill="url(#paint3_linear_193_176)"/>
<path d="M110.775 389.998L121.296 358.365L169.22 328.067L201.707 342.924L208.203 391.475L185.349 405.31L156.908 393.044L133.314 408.058L110.775 389.998Z" fill="url(#paint4_linear_193_176)"/>
<path d="M169.22 328.067L102.295 363.859L97.1364 429.702L138.6 456.988L196.446 438.901L169.22 328.067Z" fill="url(#paint5_linear_193_176)"/>
<path d="M191.171 352.104L107.031 331.245L85.8471 416.699L169.986 437.558L191.171 352.104Z" fill="black"/>
<path d="M97.8123 402.658L129.365 410.48L128.041 415.821L96.4883 407.999L97.8123 402.658ZM111.85 344.231L126.154 347.777C134.568 349.863 138.398 356.028 136.597 363.292C134.585 371.41 127.215 374.118 119.432 372.189L113.542 370.729L110.894 381.411L103.111 379.481L111.85 344.231ZM121.231 365.832C124.902 366.742 127.967 364.781 128.708 361.79C129.556 358.372 127.718 355.875 123.722 354.885L117.832 353.424L115.131 364.32L121.231 365.832ZM133.989 381.92L139.993 377.513C142.513 380.859 145.455 383.402 149.451 384.393C152.607 385.175 154.818 384.363 155.347 382.226C155.824 380.303 154.826 378.922 149.307 375.967C142.632 372.271 138.692 369.253 140.439 362.204L140.492 361.99C142.081 355.581 148.189 352.56 155.34 354.333C160.063 355.482 164.261 358.198 167.27 362.052L161.79 367.043C159.165 364.124 156.538 362.113 153.593 361.383C150.648 360.653 148.858 361.569 148.381 363.492C147.798 365.842 149.059 367.062 154.788 370.069C161.464 373.765 164.825 377.319 163.289 383.515C161.541 390.565 155.276 393.32 147.704 391.443C142.102 390.136 137.206 386.736 133.989 381.92Z" fill="white"/>
</g>
<g clip-path="url(#clip3_193_176)">
<path d="M455.82 45.0088L487.984 87.7104L466.455 113.591L444.047 101.257L423.061 96.274L455.82 45.0088Z" fill="url(#paint6_linear_193_176)"/>
<path d="M410.21 57.0273L392.789 96.0988L388.79 110.08L367.106 113.754L338.769 110.192L368.172 23.5184L423.48 14.4814L449.486 42.1476L410.21 57.0273Z" fill="url(#paint7_linear_193_176)"/>
<path d="M410.21 57.0273L395.301 136.963L379.158 148.739L338.769 110.192L390.993 61.7395L410.21 57.0273Z" fill="url(#paint8_linear_193_176)"/>
<path d="M463.407 63.5506L415.866 52.2621L466.737 24.7527L463.407 63.5506Z" fill="url(#paint9_linear_193_176)"/>
<path d="M472.772 155.584L427.606 160.017L375.64 131.163L410.21 57.0273L418.007 52.7708L452.82 57.6436L441.522 90.9302L470.997 86.844L472.772 155.584Z" fill="url(#paint10_linear_193_176)"/>
<path d="M470.058 52.6879L384.399 32.3484L364.06 118.007L449.718 138.347L470.058 52.6879Z" fill="black"/>
<path d="M376.011 103.878L408.133 111.506L406.862 116.859L374.74 109.232L376.011 103.878ZM389.678 45.3654L404.24 48.8231C412.806 50.857 416.562 56.9519 414.833 64.233C412.901 72.3705 405.46 75.128 397.536 73.2466L391.54 71.8229L388.998 82.5302L381.288 80.6997L389.678 45.3654ZM406.808 62.7798C407.622 59.3535 405.724 56.8668 401.655 55.9007L395.659 54.4769L393.066 65.3984L399.276 66.8731C403.484 67.8722 406.096 65.7779 406.808 62.7798ZM416.458 70.7268C417.517 65.7837 420.549 61.488 424.853 58.836C429.156 56.184 434.357 55.4062 439.248 56.6831C445.887 58.2595 449.447 61.3671 451.846 65.5561L445.547 70.1686C443.374 66.9378 440.946 64.7777 437.519 63.9641C431.523 62.5404 426.071 66.4488 424.596 72.6591C423.172 78.6552 426.235 84.8117 432.231 86.2355C436.3 87.2016 439.276 86.0986 442.62 84.404L446.375 90.4989C441.82 93.4891 437.141 95.0928 430.288 93.4656C425.423 92.3108 421.223 89.2565 418.624 84.9844C416.026 80.7123 415.246 75.5778 416.458 70.7268Z" fill="white"/>
</g>
<g clip-path="url(#clip4_193_176)">
<path d="M332.516 295.091C332.516 295.091 329.589 292.231 334.033 289.721L344.516 283.034C344.516 283.034 347.581 280.71 349.994 283.531L425.042 360.358L420.271 390.814C420.271 390.814 419.481 395.59 413.346 394.088L332.516 295.091Z" fill="#2489CA"/>
<path d="M351.35 318.153L326.363 334.381C326.363 334.381 323.853 335.681 325.641 338.987L334.382 349.712C334.382 349.712 336.397 352.651 340.422 350.297L366.371 336.552L351.35 318.153Z" fill="#1070B3"/>
<path d="M389.786 324.34L434.707 300.353L439.191 270.018C439.191 270.018 438.511 263.138 432.248 265.683L371.26 305.337L389.786 324.34Z" fill="#0877B9"/>
<path d="M413.339 394.129C415.304 396.852 418.252 396.522 418.252 396.522L451.948 386.198C456.378 384.13 456.34 380.695 456.34 380.695L470.583 289.76C471.209 285.763 467.28 283.732 467.28 283.732L442.164 266.57C436.801 262.024 432.248 265.683 432.248 265.683C432.248 265.683 437.8 262.916 439.191 270.018L420.358 390.259C420.229 391.085 419.923 391.87 419.452 392.546C418.515 393.857 416.756 394.941 413.123 393.803L413.339 394.129Z" fill="#3C99D4"/>
</g>
<defs>
<filter id="filter0_d_193_176" x="50.25" y="299.352" width="176.518" height="178.1" filterUnits="userSpaceOnUse" color-interpolation-filters="sRGB">
<feFlood flood-opacity="0" result="BackgroundImageFix"/>
<feColorMatrix in="SourceAlpha" type="matrix" values="0 0 0 0 0 0 0 0 0 0 0 0 0 0 0 0 0 0 127 0" result="hardAlpha"/>
<feOffset dy="4"/>
<feGaussianBlur stdDeviation="2"/>
<feComposite in2="hardAlpha" operator="out"/>
<feColorMatrix type="matrix" values="0 0 0 0 0 0 0 0 0 0 0 0 0 0 0 0 0 0 0.25 0"/>
<feBlend mode="normal" in2="BackgroundImageFix" result="effect1_dropShadow_193_176"/>
<feBlend mode="normal" in="SourceGraphic" in2="effect1_dropShadow_193_176" result="shape"/>
</filter>
<linearGradient id="paint0_linear_193_176" x1="151.651" y1="110.056" x2="30.0429" y2="90.697" gradientUnits="userSpaceOnUse">
<stop stop-color="#DD1265"/>
<stop offset="0.483" stop-color="#DD1265"/>
<stop offset="0.942" stop-color="#FDB60D"/>
</linearGradient>
<linearGradient id="paint1_linear_193_176" x1="68.5364" y1="68.8037" x2="150.045" y2="163.734" gradientUnits="userSpaceOnUse">
<stop offset="0.139" stop-color="#087CFA"/>
<stop offset="0.476" stop-color="#DD1265"/>
<stop offset="0.958" stop-color="#087CFA"/>
</linearGradient>
<linearGradient id="paint2_linear_193_176" x1="40.2232" y1="83.2936" x2="109.235" y2="176.811" gradientUnits="userSpaceOnUse">
<stop offset="0.278" stop-color="#DD1265"/>
<stop offset="0.968" stop-color="#FDB60D"/>
</linearGradient>
<linearGradient id="paint3_linear_193_176" x1="-3548.93" y1="15412" x2="7497.07" y2="7509.29" gradientUnits="userSpaceOnUse">
<stop offset="0.02" stop-color="#765AF8"/>
<stop offset="0.38" stop-color="#B345F1"/>
<stop offset="0.76" stop-color="#FA3293"/>
<stop offset="0.94" stop-color="#FF318C"/>
</linearGradient>
<linearGradient id="paint4_linear_193_176" x1="3613.33" y1="9939.49" x2="2868.32" y2="1414.29" gradientUnits="userSpaceOnUse">
<stop offset="0.18" stop-color="#765AF8"/>
<stop offset="0.24" stop-color="#8655F6"/>
<stop offset="0.34" stop-color="#9F4CF3"/>
<stop offset="0.44" stop-color="#AE47F2"/>
<stop offset="0.52" stop-color="#B345F1"/>
</linearGradient>
<linearGradient id="paint5_linear_193_176" x1="6862.19" y1="13017.1" x2="-238.768" y2="6599.68" gradientUnits="userSpaceOnUse">
<stop offset="0.02" stop-color="#765AF8"/>
<stop offset="0.38" stop-color="#B345F1"/>
</linearGradient>
<linearGradient id="paint6_linear_193_176" x1="-3078.2" y1="2508.69" x2="5078.67" y2="4445.52" gradientUnits="userSpaceOnUse">
<stop stop-color="#21D789"/>
<stop offset="1" stop-color="#07C3F2"/>
</linearGradient>
<linearGradient id="paint7_linear_193_176" x1="-7188.33" y1="10426.4" x2="13397.5" y2="5733.71" gradientUnits="userSpaceOnUse">
<stop offset="0.01" stop-color="#FCF84A"/>
<stop offset="0.11" stop-color="#A7EB62"/>
<stop offset="0.21" stop-color="#5FE077"/>
<stop offset="0.27" stop-color="#32DA84"/>
<stop offset="0.31" stop-color="#21D789"/>
<stop offset="0.58" stop-color="#21D789"/>
<stop offset="0.6" stop-color="#21D789"/>
<stop offset="0.69" stop-color="#20D68C"/>
<stop offset="0.76" stop-color="#1ED497"/>
<stop offset="0.83" stop-color="#19D1A9"/>
<stop offset="0.9" stop-color="#13CCC2"/>
<stop offset="0.97" stop-color="#0BC6E1"/>
<stop offset="1" stop-color="#07C3F2"/>
</linearGradient>
<linearGradient id="paint8_linear_193_176" x1="-400.332" y1="11354.3" x2="6562" y2="5856.47" gradientUnits="userSpaceOnUse">
<stop stop-color="#21D789"/>
<stop offset="0.16" stop-color="#24D788"/>
<stop offset="0.3" stop-color="#2FD886"/>
<stop offset="0.44" stop-color="#41DA82"/>
<stop offset="0.56" stop-color="#5ADC7D"/>
<stop offset="0.69" stop-color="#7AE077"/>
<stop offset="0.81" stop-color="#A1E36E"/>
<stop offset="0.93" stop-color="#CFE865"/>
<stop offset="1" stop-color="#F1EB5E"/>
</linearGradient>
<linearGradient id="paint9_linear_193_176" x1="-1829.8" y1="7466.18" x2="4518.97" y2="-612.267" gradientUnits="userSpaceOnUse">
<stop stop-color="#21D789"/>
<stop offset="0.06" stop-color="#24D788"/>
<stop offset="0.11" stop-color="#2FD886"/>
<stop offset="0.16" stop-color="#41DA82"/>
<stop offset="0.21" stop-color="#5ADD7D"/>
<stop offset="0.25" stop-color="#79E077"/>
<stop offset="0.26" stop-color="#7CE076"/>
<stop offset="0.5" stop-color="#8CE173"/>
<stop offset="0.92" stop-color="#B2E56B"/>
</linearGradient>
<linearGradient id="paint10_linear_193_176" x1="10063.6" y1="7809.74" x2="-2194.32" y2="4789.91" gradientUnits="userSpaceOnUse">
<stop offset="0.39" stop-color="#FCF84A"/>
<stop offset="0.54" stop-color="#ECF451"/>
<stop offset="0.83" stop-color="#C2E964"/>
<stop offset="0.92" stop-color="#B2E56B"/>
</linearGradient>
<clipPath id="clip0_193_176">
<rect width="143.032" height="140.865" fill="white" transform="translate(0 80.8137) rotate(-20.5612)"/>
</clipPath>
<clipPath id="clip1_193_176">
<rect width="138.221" height="139.59" fill="white" transform="translate(2.4762 80.5657) rotate(-20.5612)"/>
</clipPath>
<clipPath id="clip2_193_176">
<rect width="138.698" height="140.865" fill="white" transform="translate(88.1449 299.352) rotate(13.9231)"/>
</clipPath>
<clipPath id="clip3_193_176">
<rect width="140.865" height="140.865" fill="white" transform="translate(364.803 0.548828) rotate(13.3574)"/>
</clipPath>
<clipPath id="clip4_193_176">
<rect width="140.865" height="136.531" fill="white" transform="translate(336.091 246.25) rotate(8.90171)"/>
</clipPath>
</defs>
</svg>
