<svg width="68" height="68" viewBox="0 0 68 68" fill="none" xmlns="http://www.w3.org/2000/svg">
<path d="M32.4459 4.65481C33.4078 4.11506 34.5921 4.11506 35.5526 4.65481C40.3056 7.32239 54.6082 15.3521 59.3625 18.0196C60.3245 18.558 60.9166 19.5553 60.9166 20.6348C60.9166 25.97 60.9166 42.0279 60.9166 47.363C60.9166 48.4425 60.3245 49.4399 59.3625 49.9796C54.6096 52.6472 40.307 60.6769 35.5526 63.3444C34.5907 63.8842 33.4064 63.8842 32.4459 63.3444C27.693 60.6769 13.3903 52.6472 8.63599 49.9796C7.67549 49.4399 7.08333 48.4439 7.08333 47.3644C7.08333 42.0293 7.08333 25.9714 7.08333 20.6362C7.08333 19.5567 7.67549 18.5594 8.63741 18.0196C13.3889 15.3521 27.6944 7.32239 32.4459 4.65481Z" fill="#28006B"/>
<path d="M7.51399 48.7389C7.13716 48.2346 7.08333 47.7557 7.08333 47.1111C7.08333 41.8071 7.08333 25.8413 7.08333 20.5359C7.08333 19.4621 7.67408 18.4704 8.63316 17.9349C13.3691 15.2829 27.6236 7.29999 32.3595 4.64658C33.3186 4.10966 34.6176 4.12099 35.5767 4.65791C40.3126 7.30991 54.519 15.2248 59.2549 17.8768C59.6374 18.0922 59.9292 18.3514 60.1899 18.6928L7.51399 48.7389Z" fill="#A279DD"/>
<path d="M34 14.1665C23.0492 14.1665 14.1667 23.049 14.1667 33.9998C14.1667 44.9507 23.0492 53.8331 34 53.8331C44.9508 53.8331 53.8333 44.9507 53.8333 33.9998C53.8333 23.049 44.9508 14.1665 34 14.1665ZM34 43.9165C28.5316 43.9165 24.0833 39.4682 24.0833 33.9998C24.0833 28.5315 28.5316 24.0832 34 24.0832C39.4683 24.0832 43.9166 28.5315 43.9166 33.9998C43.9166 39.4682 39.4683 43.9165 34 43.9165Z" fill="white"/>
<path d="M60.1871 18.707C60.9181 19.3913 60.9039 20.4226 60.9039 21.2344C60.9039 26.6106 60.8585 41.9021 60.9166 47.2783C60.9223 47.8393 60.7367 48.4301 60.459 48.8749L33.4234 33.9999L60.1871 18.707Z" fill="#36048B"/>
<path d="M48.1666 28.3333H49.5833V39.6666H48.1666V28.3333ZM52.4166 28.3333H53.8333V39.6666H52.4166V28.3333Z" fill="white"/>
<path d="M45.3333 35.4165H56.6666V36.8332H45.3333V35.4165ZM45.3333 31.1665H56.6666V32.5832H45.3333V31.1665Z" fill="white"/>
</svg>
