<svg width="64" height="64" viewBox="0 0 64 64" fill="none" xmlns="http://www.w3.org/2000/svg">
<path d="M60.232 0L55.0909 57.5933L31.9815 64L8.93566 57.6023L3.8 0H60.232Z" fill="#264DE4"/>
<path d="M32.016 59.1031L50.6896 53.9261L55.083 4.70996H32.016V59.1031Z" fill="#2965F1"/>
<path d="M32.016 26.0737H15.5734L16.2066 33.1383H32.016V26.0737Z" fill="#EBEBEB"/>
<path d="M32.016 11.7747H31.9916H14.3011L14.9433 18.8394H32.016V11.7747Z" fill="#EBEBEB"/>
<path d="M16.5222 36.6709L17.512 47.7635L31.9835 51.7809L32.016 51.7718V44.4216L31.985 44.4298L24.117 42.3053L23.6141 36.6709H19.7908H16.5222Z" fill="#EBEBEB"/>
<path d="M40.691 33.1384L39.8709 42.3008L31.9916 44.4274V51.7774L46.4746 47.7634L46.5808 46.5699L48.241 27.9708L48.4133 26.0738L49.6887 11.7747H31.9916V18.8394H41.9464L41.3036 26.0738H31.9916V33.1384H40.691Z" fill="white"/>
</svg>
