<svg width="64" height="64" viewBox="0 0 64 64" fill="none" xmlns="http://www.w3.org/2000/svg">
<g clip-path="url(#clip0_139_115)">
<path d="M8.92 57.604L3.784 0.00195312H60.216L55.076 57.596L31.964 64L8.92 57.604Z" fill="#E44D26"/>
<path d="M50.674 53.9279L55.068 4.71191H32V59.1059L50.674 53.9279Z" fill="#F16529"/>
<path d="M31.976 11.7759H14.284L16.19 33.1399H32V26.0759H22.652L22.006 18.8419H32V11.7759H31.976ZM32 44.3999L31.97 44.4079L24.102 42.2839L23.602 36.6499H16.506L17.496 47.7419L31.968 51.7419L32 51.7319V44.3999Z" fill="#EBEBEB"/>
<path d="M31.976 33.1399H40.676L39.876 42.2999L31.996 44.4259V51.7759L46.48 47.7619L48.42 26.0719H32L31.976 33.1399ZM49.504 13.6719L49.672 11.7759H31.972V18.8399H49.036L49.176 17.2519L49.504 13.6719Z" fill="white"/>
</g>
<defs>
<clipPath id="clip0_139_115">
<rect width="64" height="64" fill="white"/>
</clipPath>
</defs>
</svg>
