<svg width="66" height="66" viewBox="0 0 66 66" fill="none" xmlns="http://www.w3.org/2000/svg">
<g clip-path="url(#clip0_30_294)">
<g clip-path="url(#clip1_30_294)">
<path d="M64.8899 26.1647L20.1528 1.04407L50.1294 46.0404L56.234 41.9916L64.8899 26.1647Z" fill="url(#paint0_linear_30_294)"/>
<path d="M47.1226 15.8588L41.4736 2.05627L29.082 14.3865L34.0933 59.1068L46.1204 65.456L64.8899 54.4139L47.1226 15.8588Z" fill="url(#paint1_linear_30_294)"/>
<path d="M20.1528 1.04407L1.10999 14.0185L8.21689 58.2786L26.5308 65.3639L50.2205 46.0404L20.1528 1.04407Z" fill="url(#paint2_linear_30_294)"/>
<path d="M52.1339 13.9264H13.866V52.5735H52.1339V13.9264Z" fill="black"/>
<path d="M32.4533 45.7643H18.0573V48.2487H32.4533V45.7643Z" fill="white"/>
<path d="M33.4556 18.7113H39.1046C43.6604 18.7113 46.7582 21.8399 46.7582 25.7966C46.7582 29.8454 43.6604 33.0659 39.1046 33.0659L33.4556 33.25V18.7113ZM36.6446 21.6558V30.3975H39.1046C41.6558 30.3975 43.4781 28.6491 43.4781 26.1647C43.4781 23.5882 41.747 21.8399 39.1046 21.8399L36.6446 21.6558Z" fill="white"/>
<path d="M18.695 18.7113H25.2552C27.0775 18.7113 28.4442 19.2634 29.4465 20.1836C30.2665 21.0117 30.631 22.1159 30.631 23.4962V23.5882C30.631 24.7844 30.3576 25.7046 29.8109 26.4407C29.2642 27.1769 28.5353 27.729 27.6242 28.097L31.1776 33.25H27.442L24.4352 28.8332H21.7929V33.25H18.6039L18.695 18.7113ZM25.073 25.7966C25.8019 25.7966 26.4397 25.6126 26.8953 25.2445C27.3508 24.8764 27.5331 24.3243 27.5331 23.7722V23.6802C27.5331 22.9441 27.3508 22.484 26.8953 22.1159C26.4397 21.8399 25.893 21.5638 25.073 21.5638H21.9751V25.7046H25.073V25.7966Z" fill="white"/>
</g>
</g>
<defs>
<linearGradient id="paint0_linear_30_294" x1="60.7804" y1="37.9603" x2="11.378" y2="9.88866" gradientUnits="userSpaceOnUse">
<stop stop-color="#DD1265"/>
<stop offset="0.483" stop-color="#DD1265"/>
<stop offset="0.942" stop-color="#FDB60D"/>
</linearGradient>
<linearGradient id="paint1_linear_30_294" x1="31.5568" y1="6.66816" x2="51.3875" y2="60.8909" gradientUnits="userSpaceOnUse">
<stop offset="0.139" stop-color="#087CFA"/>
<stop offset="0.476" stop-color="#DD1265"/>
<stop offset="0.958" stop-color="#087CFA"/>
</linearGradient>
<linearGradient id="paint2_linear_30_294" x1="16.9762" y1="8.33991" x2="31.6365" y2="59.9274" gradientUnits="userSpaceOnUse">
<stop offset="0.278" stop-color="#DD1265"/>
<stop offset="0.968" stop-color="#FDB60D"/>
</linearGradient>
<clipPath id="clip0_30_294">
<rect width="66" height="65" fill="white" transform="translate(0 0.75)"/>
</clipPath>
<clipPath id="clip1_30_294">
<rect width="63.7799" height="64.4119" fill="white" transform="translate(1.10999 1.04407)"/>
</clipPath>
</defs>
</svg>
