<svg width="120" height="60" viewBox="0 0 120 60" fill="none" xmlns="http://www.w3.org/2000/svg">
<mask id="mask0_21_88" style="mask-type:luminance" maskUnits="userSpaceOnUse" x="13" y="8" width="92" height="48">
<path d="M13.6365 31.9834C13.6365 45.0465 34.0469 55.6366 59.2234 55.6366C84.3999 55.6366 104.81 45.0465 104.81 31.9834C104.81 18.9203 84.3999 8.3302 59.2234 8.3302C34.0469 8.3302 13.6365 18.9205 13.6365 31.9834Z" fill="white"/>
</mask>
<g mask="url(#mask0_21_88)">
<path d="M13.6365 31.9834C13.6365 45.0465 34.0469 55.6366 59.2234 55.6366C84.3999 55.6366 104.81 45.0465 104.81 31.9834C104.81 18.9203 84.3999 8.3302 59.2234 8.3302C34.0469 8.3302 13.6365 18.9205 13.6365 31.9834Z" fill="url(#paint0_radial_21_88)"/>
</g>
<mask id="mask1_21_88" style="mask-type:luminance" maskUnits="userSpaceOnUse" x="11" y="5" width="96" height="54">
<path d="M11.7371 5.63707H106.71V58.3298H11.7371V5.63707Z" fill="white"/>
</mask>
<g mask="url(#mask1_21_88)">
<path d="M59.2234 53.8802C83.4167 53.8802 103.029 44.0768 103.029 31.9835C103.029 19.8902 83.4167 10.0867 59.2234 10.0867C35.0301 10.0867 15.4173 19.8902 15.4173 31.9835C15.4173 44.0768 35.0301 53.8802 59.2234 53.8802Z" fill="#777BB3"/>
</g>
<mask id="mask2_21_88" style="mask-type:luminance" maskUnits="userSpaceOnUse" x="11" y="5" width="96" height="54">
<path d="M11.7371 5.63707H106.71V58.3298H11.7371V5.63707Z" fill="white"/>
</mask>
<g mask="url(#mask2_21_88)">
<path d="M38.4043 34.6982C40.3936 34.6982 41.8787 34.3363 42.8182 33.6232C43.7478 32.9173 44.3898 31.694 44.7264 29.9878C45.0401 28.3931 44.9206 27.2795 44.3712 26.6786C43.8095 26.0648 42.5949 25.7536 40.7614 25.7536H37.5825L35.8199 34.6983H38.4041L38.4043 34.6982ZM28.0061 45.7165C27.8585 45.7165 27.7184 45.6514 27.6245 45.5389C27.5782 45.4834 27.5448 45.4184 27.5268 45.3487C27.5089 45.279 27.5068 45.2062 27.5207 45.1356L32.1915 21.4319C32.2134 21.3208 32.2738 21.2206 32.3624 21.1486C32.451 21.0766 32.5623 21.0372 32.6771 21.0372H42.7438C45.9076 21.0372 48.2625 21.8829 49.7426 23.5559C51.2307 25.2359 51.6902 27.5846 51.1083 30.5361C50.8716 31.7386 50.4643 32.8552 49.8981 33.8554C49.3309 34.8564 48.5817 35.7826 47.6705 36.6088C46.5797 37.6158 45.345 38.346 44.0042 38.7757C42.6846 39.1996 40.9901 39.4148 38.9673 39.4148H34.8911L33.727 45.3219C33.7051 45.4331 33.6447 45.5333 33.5562 45.6053C33.4676 45.6773 33.3564 45.7168 33.2416 45.7168H28.0061V45.7165Z" fill="black"/>
<path d="M37.9904 26.2413H40.7618C42.9745 26.2413 43.7433 26.7203 44.0045 27.0057C44.4378 27.4796 44.5196 28.4788 44.2411 29.8952C43.9282 31.4809 43.3481 32.6051 42.5168 33.2365C41.6657 33.8828 40.282 34.2103 38.4046 34.2103H36.4201L37.9904 26.2413ZM42.744 20.5492H32.6772C32.4476 20.5493 32.2252 20.6281 32.048 20.7721C31.8709 20.9162 31.75 21.1165 31.7062 21.3388L27.0354 45.0427C27.0076 45.184 27.0118 45.3296 27.0477 45.4691C27.0837 45.6085 27.1504 45.7384 27.2432 45.8495C27.336 45.9605 27.4525 46.0499 27.5845 46.1113C27.7164 46.1727 27.8605 46.2046 28.0064 46.2046H33.2415C33.4711 46.2046 33.6936 46.1258 33.8707 45.9818C34.0479 45.8377 34.1688 45.6373 34.2126 45.415L35.2989 39.9026H38.9675C41.0421 39.9026 42.7885 39.6795 44.158 39.2395C45.5661 38.7882 46.8621 38.0231 48.0087 36.9653C48.9571 36.1047 49.74 35.1386 50.3303 34.0937C50.9205 33.0488 51.3476 31.8829 51.5946 30.6293C52.2071 27.5224 51.7095 25.0345 50.1156 23.2351C48.5373 21.453 46.0571 20.5494 42.7443 20.5494M35.2202 35.1863H38.4046C40.5151 35.1863 42.0874 34.7943 43.1203 34.0098C44.1531 33.2253 44.8502 31.9159 45.2123 30.0811C45.5585 28.3195 45.4009 27.0763 44.7391 26.3519C44.0772 25.6276 42.7506 25.2656 40.7621 25.2656H37.1752L35.2204 35.1861M42.7445 21.525C45.7729 21.525 47.9822 22.3089 49.3708 23.8767C50.7594 25.4445 51.1774 27.6332 50.6234 30.4429C50.3954 31.6004 50.0097 32.6586 49.4668 33.6175C48.9238 34.5764 48.2133 35.4541 47.3361 36.2496C46.2908 37.2145 45.1295 37.9019 43.8517 38.3117C42.5738 38.7224 40.9464 38.9268 38.9678 38.9268H34.4837L33.2421 45.2288H28.0071L32.6772 21.525H42.7442" fill="white"/>
<path d="M63.1118 39.4145C62.9641 39.4145 62.8241 39.3495 62.7303 39.2369C62.6365 39.1244 62.5981 38.9767 62.6264 38.8336L64.6924 28.3455C64.8889 27.348 64.8405 26.6321 64.556 26.3296C64.3819 26.1447 63.8589 25.8346 62.3125 25.8346H58.5693L55.9716 39.0195C55.9497 39.1307 55.8892 39.2309 55.8007 39.3029C55.7121 39.3749 55.6008 39.4143 55.486 39.4143H50.2922C50.2192 39.4143 50.1472 39.3984 50.0812 39.3677C50.0152 39.337 49.9569 39.2923 49.9105 39.2368C49.8641 39.1813 49.8307 39.1163 49.8127 39.0466C49.7948 38.9769 49.7927 38.9041 49.8066 38.8334L54.4774 15.1298C54.4993 15.0187 54.5598 14.9185 54.6484 14.8465C54.7369 14.7745 54.8482 14.7351 54.963 14.7351H60.1568C60.2297 14.7351 60.3018 14.751 60.3678 14.7817C60.4338 14.8124 60.492 14.8571 60.5385 14.9126C60.5849 14.9681 60.6182 15.0331 60.6362 15.1029C60.6542 15.1726 60.6563 15.2454 60.6424 15.316L59.5152 21.0371H63.542C66.6096 21.0371 68.6897 21.5705 69.9015 22.668C71.1382 23.7875 71.5218 25.5775 71.047 27.9893L68.8738 39.0198C68.8519 39.131 68.7915 39.2312 68.7029 39.3032C68.6143 39.3753 68.5031 39.4147 68.3882 39.4147H63.112L63.1118 39.4145Z" fill="black"/>
<path d="M60.1566 14.2472H54.9628C54.7332 14.2472 54.5107 14.326 54.3335 14.47C54.1563 14.6141 54.0355 14.8144 53.9917 15.0368L49.3209 38.7404C49.293 38.8817 49.2972 39.0272 49.3332 39.1667C49.3691 39.3062 49.4359 39.4361 49.5287 39.5472C49.6215 39.6582 49.7381 39.7476 49.87 39.809C50.002 39.8704 50.1461 39.9022 50.292 39.9022H55.4858C55.7155 39.9022 55.9379 39.8235 56.1151 39.6794C56.2923 39.5353 56.4132 39.335 56.457 39.1126L58.9769 26.3224H62.3125C63.8563 26.3224 64.1803 26.6477 64.1933 26.6617C64.287 26.7609 64.4101 27.2212 64.2068 28.2522L62.1408 38.7404C62.113 38.8817 62.1172 39.0272 62.1532 39.1667C62.1891 39.3062 62.2558 39.4361 62.3487 39.5472C62.4415 39.6582 62.5581 39.7476 62.69 39.809C62.822 39.8704 62.9661 39.9022 63.112 39.9022H68.3883C68.6179 39.9022 68.8404 39.8235 69.0175 39.6794C69.1947 39.5353 69.3156 39.335 69.3594 39.1126L71.5326 28.0821C72.0426 25.493 71.6063 23.5505 70.2366 22.3087C68.9294 21.1247 66.7398 20.549 63.5423 20.549H60.1154L61.1283 15.409C61.1561 15.2677 61.152 15.1221 61.116 14.9826C61.0801 14.8431 61.0134 14.7132 60.9205 14.6021C60.8277 14.4911 60.7111 14.4016 60.5792 14.3402C60.4472 14.2789 60.3031 14.247 60.1571 14.247M60.1571 15.2228L58.9156 21.5248H63.5425C66.4538 21.5248 68.462 22.026 69.5673 23.0272C70.6727 24.0284 71.0035 25.6521 70.5619 27.8961L68.3887 38.9264H63.1125L65.1785 28.4386C65.4136 27.2455 65.3272 26.4317 64.9189 25.9978C64.5107 25.5639 63.6418 25.3467 62.313 25.3467H58.1615L55.4862 38.9264H50.2923L54.9631 15.2228H60.157" fill="white"/>
<path d="M79.2649 34.6982C81.2542 34.6982 82.7393 34.3363 83.6788 33.6232C84.6084 32.9173 85.2505 31.6943 85.5872 29.9878C85.901 28.3931 85.7814 27.2795 85.2319 26.6786C84.6701 26.0648 83.4556 25.7536 81.6221 25.7536H78.4431L76.6805 34.6983H79.2647L79.2649 34.6982ZM68.8671 45.7165C68.7195 45.7165 68.5793 45.6514 68.4855 45.5389C68.4391 45.4834 68.4057 45.4184 68.3877 45.3487C68.3697 45.279 68.3676 45.2062 68.3815 45.1356L73.0523 21.4319C73.0742 21.3208 73.1347 21.2206 73.2233 21.1486C73.3119 21.0765 73.4232 21.0372 73.538 21.0372H83.6046C86.7687 21.0372 89.1233 21.8829 90.6036 23.5559C92.0917 25.2359 92.5509 27.5843 91.9693 30.5361C91.7322 31.7386 91.3251 32.8552 90.7587 33.8554C90.1915 34.8564 89.4423 35.7826 88.5312 36.6088C87.4403 37.6158 86.2057 38.346 84.8648 38.7757C83.5453 39.1996 81.8508 39.4148 79.828 39.4148H75.7513L74.5877 45.3219C74.5658 45.4331 74.5053 45.5334 74.4167 45.6054C74.3281 45.6775 74.2168 45.7168 74.1019 45.7168H68.8669L68.8671 45.7165Z" fill="black"/>
<path d="M78.8511 26.2413H81.6224C83.8351 26.2413 84.604 26.7203 84.8652 27.0057C85.2988 27.4796 85.3804 28.4788 85.1018 29.895C84.7888 31.4807 84.2086 32.6051 83.3774 33.2365C82.5263 33.8828 81.1426 34.2103 79.2652 34.2103H77.2812L78.8511 26.2413ZM83.6046 20.5492H73.5379C73.3083 20.5493 73.0858 20.6281 72.9087 20.7721C72.7315 20.9162 72.6107 21.1165 72.5669 21.3388L67.8962 45.0427C67.8684 45.184 67.8726 45.3296 67.9085 45.4691C67.9445 45.6085 68.0112 45.7384 68.104 45.8495C68.1968 45.9605 68.3134 46.0499 68.4453 46.1113C68.5773 46.1727 68.7213 46.2046 68.8672 46.2046H74.1023C74.3319 46.2046 74.5544 46.1258 74.7315 45.9818C74.9087 45.8377 75.0296 45.6373 75.0734 45.415L76.1595 39.9026H79.8282C81.9027 39.9026 83.6492 39.6795 85.0187 39.2395C86.4268 38.7882 87.7228 38.0231 88.8697 36.965C89.8181 36.1047 90.599 35.1386 91.1909 34.0937C91.7828 33.0488 92.2082 31.8829 92.4552 30.6293C93.0678 27.5222 92.5701 25.0343 90.9762 23.2349C89.398 21.453 86.918 20.5494 83.605 20.5494M76.081 35.1863H79.2652C81.3757 35.1863 82.9481 34.7943 83.9809 34.0098C85.0137 33.2253 85.7108 31.9159 86.0729 30.0811C86.4195 28.3195 86.2617 27.0763 85.5997 26.3519C84.9377 25.6276 83.6112 25.2656 81.6227 25.2656H78.0359L76.0812 35.1861M83.6051 21.525C86.6335 21.525 88.8428 22.3089 90.2314 23.8767C91.6201 25.4445 92.0381 27.6332 91.4841 30.4429C91.256 31.6004 90.8704 32.6586 90.3274 33.6175C89.7845 34.5764 89.074 35.4541 88.1968 36.2496C87.1514 37.2145 85.9902 37.9019 84.7123 38.3117C83.4345 38.7224 81.8071 38.9268 79.8285 38.9268H75.3443L74.1028 45.2288H68.8677L73.5385 21.5252H83.6053" fill="white"/>
</g>
<defs>
<radialGradient id="paint0_radial_21_88" cx="0" cy="0" r="1" gradientUnits="userSpaceOnUse" gradientTransform="translate(41.0071 16.646) scale(59.8621 59.0448)">
<stop stop-color="#AEB2D5"/>
<stop offset="0.3" stop-color="#AEB2D5"/>
<stop offset="0.75" stop-color="#484C89"/>
<stop offset="1" stop-color="#484C89"/>
</radialGradient>
</defs>
</svg>
