<svg width="48" height="1708" viewBox="0 0 48 1708" fill="none" xmlns="http://www.w3.org/2000/svg">
<rect x="17" width="14" height="500" rx="7" fill="url(#paint0_linear_195_39)"/>
<path d="M15.7349 556.763L5.96713 547L15.7349 537.237C16.7117 536.261 16.7117 534.709 15.7349 533.732C14.7582 532.756 13.2053 532.756 12.2285 533.732L0.732585 545.223C-0.244195 546.199 -0.244195 547.776 0.732585 548.752L12.2285 560.268C13.2053 561.244 14.7582 561.244 15.7349 560.268C16.7117 559.291 16.7117 557.739 15.7349 556.763ZM32.2651 556.763L42.0329 547L32.2651 537.237C31.2883 536.261 31.2883 534.709 32.2651 533.732C33.2418 532.756 34.7947 532.756 35.7715 533.732L47.2674 545.223C48.2442 546.199 48.2442 547.776 47.2674 548.752L35.7715 560.268C34.7947 561.244 33.2418 561.244 32.2651 560.268C31.2883 559.291 31.2883 557.739 32.2651 556.763Z" fill="#007777"/>
<rect x="17" y="594" width="14" height="500" rx="7" fill="url(#paint1_linear_195_39)"/>
<path d="M8 1167C6.9 1167 5.95833 1166.61 5.175 1165.83C4.39167 1165.04 4 1164.1 4 1163V1139C4 1137.9 4.39167 1136.96 5.175 1136.18C5.95833 1135.39 6.9 1135 8 1135H40C41.1 1135 42.0417 1135.39 42.825 1136.18C43.6083 1136.96 44 1137.9 44 1139V1163C44 1164.1 43.6083 1165.04 42.825 1165.83C42.0417 1166.61 41.1 1167 40 1167H8ZM8 1163H40V1143H8V1163ZM15 1161L12.2 1158.2L17.35 1153L12.15 1147.8L15 1145L23 1153L15 1161ZM24 1161V1157H36V1161H24Z" fill="#2A7CA6"/>
<rect x="17" y="1208" width="14" height="500" rx="7" fill="url(#paint2_linear_195_39)"/>
<defs>
<linearGradient id="paint0_linear_195_39" x1="24" y1="0" x2="24" y2="500" gradientUnits="userSpaceOnUse">
<stop stop-color="#FF8C42"/>
<stop offset="1" stop-color="#007777"/>
</linearGradient>
<linearGradient id="paint1_linear_195_39" x1="24" y1="594" x2="24" y2="1094" gradientUnits="userSpaceOnUse">
<stop stop-color="#007777"/>
<stop offset="1" stop-color="#2A7CA6"/>
</linearGradient>
<linearGradient id="paint2_linear_195_39" x1="24" y1="1208" x2="24" y2="1708" gradientUnits="userSpaceOnUse">
<stop stop-color="#2A7CA6"/>
<stop offset="1" stop-color="#995428"/>
</linearGradient>
</defs>
</svg>
