<svg width="48" height="1527" viewBox="0 0 48 1527" fill="none" xmlns="http://www.w3.org/2000/svg">
<rect x="17" width="14" height="371" rx="7" fill="url(#paint0_linear_195_39)"/>
<path d="M15.7349 427.763L5.96713 418L15.7349 408.237C16.7117 407.261 16.7117 405.709 15.7349 404.732C14.7582 403.756 13.2053 403.756 12.2285 404.732L0.732585 416.223C-0.244195 417.199 -0.244195 418.776 0.732585 419.752L12.2285 431.268C13.2053 432.244 14.7582 432.244 15.7349 431.268C16.7117 430.291 16.7117 428.739 15.7349 427.763ZM32.2651 427.763L42.0329 418L32.2651 408.237C31.2883 407.261 31.2883 405.709 32.2651 404.732C33.2418 403.756 34.7947 403.756 35.7715 404.732L47.2674 416.223C48.2442 417.199 48.2442 418.776 47.2674 419.752L35.7715 431.268C34.7947 432.244 33.2418 432.244 32.2651 431.268C31.2883 430.291 31.2883 428.739 32.2651 427.763Z" fill="#007777"/>
<rect x="17" y="465" width="14" height="565" rx="7" fill="url(#paint1_linear_195_39)"/>
<path d="M8 1103C6.9 1103 5.95833 1102.61 5.175 1101.83C4.39167 1101.04 4 1100.1 4 1099V1075C4 1073.9 4.39167 1072.96 5.175 1072.18C5.95833 1071.39 6.9 1071 8 1071H40C41.1 1071 42.0417 1071.39 42.825 1072.18C43.6083 1072.96 44 1073.9 44 1075V1099C44 1100.1 43.6083 1101.04 42.825 1101.83C42.0417 1102.61 41.1 1103 40 1103H8ZM8 1099H40V1079H8V1099ZM15 1097L12.2 1094.2L17.35 1089L12.15 1083.8L15 1081L23 1089L15 1097ZM24 1097V1093H36V1097H24Z" fill="#2A7CA6"/>
<rect x="17" y="1144" width="14" height="383" rx="7" fill="url(#paint2_linear_195_39)"/>
<defs>
<linearGradient id="paint0_linear_195_39" x1="24" y1="0" x2="24" y2="371" gradientUnits="userSpaceOnUse">
<stop stop-color="#FF8C42"/>
<stop offset="1" stop-color="#007777"/>
</linearGradient>
<linearGradient id="paint1_linear_195_39" x1="24" y1="465" x2="24" y2="1030" gradientUnits="userSpaceOnUse">
<stop stop-color="#007777"/>
<stop offset="1" stop-color="#2A7CA6"/>
</linearGradient>
<linearGradient id="paint2_linear_195_39" x1="24" y1="1144" x2="24" y2="1527" gradientUnits="userSpaceOnUse">
<stop stop-color="#2A7CA6"/>
<stop offset="1" stop-color="#995428"/>
</linearGradient>
</defs>
</svg>
